<svg width="200" height="80" viewBox="0 0 200 80" fill="none" xmlns="http://www.w3.org/2000/svg">
<path d="M2.48248 31.4395H-6.10352e-05V48.5601H2.48248V31.4395Z" fill="#D0AD67"/>
<path d="M9.1543 24.5913H6.67175V55.4084H9.1543V24.5913Z" fill="#D0AD67"/>
<path d="M15.826 17.2764H13.3435V62.5682H15.826V17.2764Z" fill="#D0AD67"/>
<path d="M22.498 44.9805H20.0155V73.1517H22.498V44.9805Z" fill="#D0AD67"/>
<path d="M29.1698 53.2295H26.6873V79.9999H29.1698V53.2295Z" fill="#D0AD67"/>
<path d="M29.1698 0H26.6873V26.4591H29.1698V0Z" fill="#D0AD67"/>
<path d="M35.9969 73.1515H33.3592V47.7819L20.0155 33.7741V6.69238H22.6532V32.6846L35.9969 46.6924V73.1515Z" fill="#D0AD67"/>
<path d="M35.8417 6.69238H33.3591V33.7741H35.8417V6.69238Z" fill="#D0AD67"/>
<path d="M42.5136 17.2764H40.031V62.5682H42.5136V17.2764Z" fill="#D0AD67"/>
<path d="M49.1853 24.5913H46.7028V55.4084H49.1853V24.5913Z" fill="#D0AD67"/>
<path d="M56.0123 31.4395H53.5298V48.5601H56.0123V31.4395Z" fill="#D0AD67"/>
<path d="M105.043 58.2099H106.284V63.1905C105.663 63.6574 105.043 64.1243 104.112 64.4356C103.336 64.7469 102.405 64.9025 101.474 64.9025C100.233 64.9025 98.9914 64.5913 98.0605 64.1243C96.9744 63.5018 96.1986 62.7236 95.5779 61.7897C94.9573 60.8559 94.647 59.6107 94.647 58.3656C94.647 57.1204 94.9573 56.0309 95.5779 54.9415C96.1986 54.0076 96.9744 53.0737 98.0605 52.6068C99.1466 51.9843 100.233 51.8286 101.474 51.8286C102.405 51.8286 103.336 51.9843 104.112 52.2955C104.887 52.6068 105.663 53.0738 106.129 53.6963L105.508 54.3189C104.422 53.2294 103.181 52.7625 101.629 52.7625C100.543 52.7625 99.6121 52.9181 98.8363 53.385C98.0605 53.852 97.2847 54.4745 96.8192 55.2527C96.3537 56.0309 96.0434 56.9648 96.0434 58.0543C96.0434 59.1438 96.3537 59.922 96.8192 60.8558C97.2847 61.6341 97.9053 62.2566 98.8363 62.7236C99.6121 63.1905 100.543 63.5018 101.629 63.5018C103.026 63.5018 104.112 63.1905 105.043 62.5679V58.2099Z" fill="#D0AD67"/>
<path d="M120.714 64.7473L117.921 60.5449C117.61 60.5449 117.3 60.5449 116.835 60.5449H113.421V64.7473H112.025V51.6733H116.835C118.541 51.6733 119.783 52.1403 120.714 52.9185C121.645 53.6967 122.11 54.7862 122.11 56.187C122.11 57.2764 121.8 58.0547 121.334 58.8329C120.869 59.6111 120.093 60.078 119.162 60.3893L122.265 64.9029H120.714V64.7473ZM119.627 58.6772C120.248 58.0547 120.714 57.2765 120.714 56.3426C120.714 55.2531 120.403 54.4749 119.627 53.8523C119.007 53.2298 117.921 53.0741 116.679 53.0741H113.266V59.6111H116.679C118.076 59.4554 119.007 59.1442 119.627 58.6772Z" fill="#D0AD67"/>
<path d="M129.247 63.9689C128.161 63.3464 127.385 62.5682 126.765 61.6343C126.144 60.7005 125.834 59.4553 125.834 58.2102C125.834 56.9651 126.144 55.8756 126.765 54.7861C127.385 53.8522 128.161 52.9184 129.247 52.4514C130.333 51.8289 131.42 51.5176 132.661 51.5176C133.902 51.5176 135.143 51.8289 136.074 52.2958C137.16 52.9184 137.936 53.6966 138.557 54.6304C139.178 55.7199 139.488 56.8094 139.488 58.0545C139.488 59.2997 139.178 60.3892 138.557 61.4787C137.936 62.5682 137.16 63.3464 136.074 63.8133C134.988 64.4359 133.902 64.7471 132.661 64.7471C131.42 64.9028 130.333 64.5915 129.247 63.9689ZM135.454 62.8794C136.23 62.4125 136.85 61.79 137.316 61.0117C137.781 60.2335 137.936 59.2997 137.936 58.2102C137.936 57.1207 137.781 56.3425 137.316 55.4086C136.85 54.6304 136.23 54.0079 135.454 53.5409C134.678 53.074 133.747 52.9184 132.661 52.9184C131.575 52.9184 130.799 53.074 129.868 53.5409C128.937 54.0079 128.472 54.6304 127.851 55.4086C127.385 56.1868 127.075 57.1207 127.075 58.2102C127.075 59.2997 127.385 60.0779 127.851 61.0117C128.316 61.79 128.937 62.4125 129.868 62.8794C130.644 63.3464 131.575 63.502 132.661 63.502C133.747 63.6577 134.678 63.3464 135.454 62.8794Z" fill="#D0AD67"/>
<path d="M145.694 63.5021C144.763 62.4126 144.298 61.0119 144.298 59.1442V51.6733H145.694V59.1442C145.694 60.7006 146.005 61.7901 146.78 62.5683C147.401 63.3465 148.487 63.6578 149.728 63.6578C150.97 63.6578 152.056 63.3465 152.676 62.5683C153.297 61.7901 153.763 60.7006 153.763 59.1442V51.6733H155.159V59.1442C155.159 61.0119 154.694 62.4126 153.763 63.3465C152.832 64.2803 151.59 64.7473 149.884 64.7473C147.867 64.9029 146.625 64.436 145.694 63.5021Z" fill="#D0AD67"/>
<path d="M169.434 52.9185C170.364 53.6967 170.83 54.7862 170.83 56.187C170.83 57.5877 170.364 58.6772 169.434 59.4554C168.503 60.2337 167.261 60.7006 165.555 60.7006H162.141V64.7473H160.745V51.6733H165.555C167.106 51.6733 168.503 52.1403 169.434 52.9185ZM168.347 58.6772C168.968 58.0547 169.434 57.2765 169.434 56.3426C169.434 55.2531 169.123 54.4749 168.347 53.8523C167.727 53.2298 166.641 53.0741 165.399 53.0741H161.986V59.6111H165.399C166.796 59.4554 167.727 59.1442 168.347 58.6772Z" fill="#D0AD67"/>
<path d="M76.4933 40.778H69.6663L68.2698 44.0465H64.7012L71.373 28.9492H74.7865L81.4583 44.0465H77.8897L76.4933 40.778ZM75.4071 38.1321L72.9246 32.3733L70.5972 38.1321H75.4071Z" fill="#D0AD67"/>
<path d="M85.4927 28.9492H88.9062V41.2449H96.3538V44.0465H85.4927V28.9492Z" fill="#D0AD67"/>
<path d="M102.25 43.7355C101.164 43.4242 100.233 42.9572 99.6119 42.4903L100.853 39.8444C101.474 40.3113 102.25 40.6226 103.181 40.9339C104.112 41.2452 104.887 41.4008 105.818 41.4008C106.749 41.4008 107.525 41.2452 107.991 40.9339C108.456 40.6226 108.766 40.3113 108.766 39.6888C108.766 39.3775 108.611 39.0662 108.301 38.7549C107.991 38.4436 107.68 38.288 107.215 38.1323C106.749 37.9767 106.129 37.8211 105.508 37.6654C104.422 37.3541 103.491 37.1985 102.715 36.8872C101.939 36.5759 101.319 36.109 100.853 35.6421C100.388 35.0195 100.077 34.2413 100.077 33.3074C100.077 32.3736 100.388 31.5954 100.853 30.9728C101.319 30.1946 102.094 29.7277 103.025 29.2608C103.956 28.7938 105.043 28.6382 106.439 28.6382C107.37 28.6382 108.301 28.7938 109.232 28.9495C110.163 29.1051 110.939 29.572 111.559 29.8833L110.163 32.6849C108.766 31.9067 107.37 31.4397 105.973 31.4397C105.043 31.4397 104.267 31.5954 103.801 31.9067C103.336 32.218 103.181 32.6849 103.181 33.1518C103.181 33.6187 103.491 34.0857 103.956 34.2413C104.422 34.5526 105.353 34.7082 106.439 35.0195C107.525 35.3308 108.456 35.6421 109.232 35.7977C110.008 36.109 110.628 36.5759 111.094 37.0429C111.559 37.6654 111.87 38.4436 111.87 39.3775C111.87 40.3113 111.559 41.0895 111.094 41.7121C110.628 42.4903 109.852 42.9572 108.921 43.4242C107.991 43.8911 106.749 44.0467 105.508 44.0467C104.422 44.358 103.336 44.0467 102.25 43.7355Z" fill="#D0AD67"/>
<path d="M126.61 40.778H119.783L118.541 44.0465H114.818L121.489 28.9492H124.903L131.575 44.0465H128.006L126.61 40.778ZM125.524 38.1321L123.196 32.3733L120.869 38.1321H125.524Z" fill="#D0AD67"/>
<path d="M141.815 38.7547V44.0465H138.402V38.599L132.661 28.9492H136.385L140.264 35.6418L144.298 28.9492H147.711L141.815 38.7547Z" fill="#D0AD67"/>
<path d="M158.573 38.7547V44.0465H155.159V38.599L149.418 28.9492H153.142L157.021 35.6418L161.055 28.9492H164.469L158.573 38.7547Z" fill="#D0AD67"/>
<path d="M177.347 40.778H170.52L169.123 44.0465H165.555L172.227 28.9492H175.64L182.312 44.0465H178.743L177.347 40.778ZM176.261 38.1321L173.933 32.3733L171.606 38.1321H176.261Z" fill="#D0AD67"/>
<path d="M200 28.9492V44.0465H196.431V37.8208H189.759V44.0465H186.346V28.9492H189.759V34.8636H196.431V28.9492H200Z" fill="#D0AD67"/>
</svg>
