<svg width="213" height="32" viewBox="0 0 213 32" fill="none" xmlns="http://www.w3.org/2000/svg">
<mask id="mask0_49_210" style="mask-type:luminance" maskUnits="userSpaceOnUse" x="0" y="0" width="213" height="32">
<path d="M213 0H0V32H213V0Z" fill="white"/>
</mask>
<g mask="url(#mask0_49_210)">
<path d="M34.32 0L37.5802 9.02015C31.6434 11.5617 25.2507 12.8691 18.7916 12.8627C12.3312 12.8697 5.93712 11.5613 0 9.01714L3.26017 0C8.14878 2.18219 13.4446 3.30584 18.7991 3.29704C24.1477 3.30406 29.4372 2.18043 34.32 0ZM18.7916 22.4344C13.4396 22.4421 8.14646 21.3185 3.26017 19.1373L0 28.1545C5.93712 30.6986 12.3312 32.0071 18.7916 32C25.2505 32.0062 31.6431 30.6994 37.5802 28.159L34.32 19.1373C29.4349 21.3188 24.1427 22.4424 18.7916 22.4344ZM180.745 15.4033C180.782 17.6276 180.363 19.8359 179.515 21.8929C178.667 23.9499 177.407 25.8124 175.814 27.3661C174.22 28.9199 172.325 30.1324 170.246 30.9292C168.166 31.726 165.946 32.0903 163.72 32H153.057V0H164.407C175.209 0 180.745 7.53438 180.745 15.4033ZM173.353 15.4033C173.353 10.8314 170.637 6.78395 164.555 6.78395H160.368V25.216H163.646C170.209 25.216 173.353 20.3564 173.353 15.4033ZM116.681 32L109.59 18.5888C111.157 17.7957 112.463 16.5715 113.356 15.0608C114.248 13.5501 114.689 11.8159 114.626 10.0629C114.626 5.05104 111.111 0 102.618 0H89.8198V32H97.1276V20.0836H102.375L108.504 32H116.681ZM97.1276 13.8497V6.78094H101.079C104.832 6.78094 106.926 7.49218 106.926 10.2468C106.926 13.3253 104.512 13.8376 101.079 13.8376L97.1276 13.8497ZM75.2011 0H66.193L54.7771 32H62.2826L64.4324 25.6606H76.9616L79.1114 32H86.6169L75.2011 0ZM66.6441 19.1373L70.6978 7.18177L74.75 19.1373H66.6441ZM138.208 0H129.2L117.784 32H125.289L127.439 25.6606H139.968L142.114 32H149.619L138.208 0ZM129.651 19.1373L133.703 7.18177L137.757 19.1373H129.651ZM201.584 0H192.576L181.16 32H188.666L190.815 25.6606H203.345L205.495 32H213L201.584 0ZM193.027 19.1373L197.081 7.18177L201.133 19.1373H193.027Z" fill="#192334"/>
</g>
</svg>
