<svg width="146" height="36" viewBox="0 0 146 36" fill="none" xmlns="http://www.w3.org/2000/svg">
<g clip-path="url(#clip0_49_225)">
<path d="M46.3123 0H40.3378V35.9929H61.8043V31.2517H46.3123V0Z" fill="#192334"/>
<path d="M65.8966 36.0002L80.7542 20.5381H69.2759L65.8966 36.0002Z" fill="#192334"/>
<path d="M14.8291 0L0 36H5.98866L9.52482 27.4788H25.8938L29.4229 36H35.4115L20.5825 0H14.8291ZM17.7022 7.68835L23.9262 22.7376H11.4711L17.6951 7.68835H17.7022Z" fill="#192334"/>
<path d="M73.7672 0L88.2542 35.9929H95.576L80.5258 0H73.7672Z" fill="#192334"/>
<path d="M139.729 0V26.9092L119.773 0H113.806V35.9929H119.745V9.17619L139.729 35.9929H145.674V0H139.729Z" fill="#192334"/>
<path d="M106.805 0H100.866V36H106.805V0Z" fill="#192334"/>
</g>
<defs>
<clipPath id="clip0_49_225">
<rect width="146" height="36" fill="white"/>
</clipPath>
</defs>
</svg>
