<svg width="99" height="112" viewBox="0 0 99 112" fill="none" xmlns="http://www.w3.org/2000/svg">
<path d="M31.8037 34.3005C33.509 32.2134 35.8504 30.8862 37.7685 28.4118C39.6866 25.9375 37.573 24.8175 38.7337 24.2427C38.9639 24.1292 39.4045 24.3192 39.5554 24.593C41.0305 27.2721 38.36 30.0326 36.4963 31.6855L34.7242 33.2545C33.712 34.15 31.4374 36.0397 32.368 37.3718C33.2986 38.704 35.89 37.1029 37.0062 36.4023L40.9662 33.9206C41.7805 33.4099 42.6492 33.0645 43.5699 32.8055C44.8321 32.4527 46.2553 32.8548 46.9186 34.0291C47.9828 35.9114 46.5622 39.3183 45.5573 41.1044C42.6937 46.1863 37.9294 50.7946 32.3062 52.6547C28.1655 54.0263 23.7773 53.6192 20.0054 51.4779C18.3422 50.5331 17.1814 49.0726 16.5478 47.2841C16.2583 46.47 16.1073 45.646 15.9464 44.7826C15.7855 43.9192 15.8276 43.0187 15.9415 42.1528C16.6419 36.8168 19.4015 32.6303 23.3046 29.0138C28.9352 23.7962 36.5384 20.7667 43.9362 19.0029C47.3071 18.1986 50.5865 17.7472 54.0317 17.3253C62.0433 16.3484 72.1858 14.7202 79.7222 12.0016C81.8631 11.2295 84.4693 10.0478 85.9196 8.28638C86.7364 7.29466 86.0186 6.224 87.0606 6.25607C87.3873 6.26594 87.7759 6.58665 87.7536 7.03563C87.6274 9.64321 84.4148 11.3701 82.2937 12.3396C74.6039 15.8501 61.3231 17.7669 52.7967 18.8104C45.2281 19.7355 37.5507 21.608 30.8509 25.301C26.2177 27.8568 22.025 31.3327 19.399 35.9632C17.7631 38.8471 16.6914 42.5475 17.5081 45.8138C17.9165 47.4469 18.6862 49.0159 20.1316 49.978C22.7923 51.7493 26.0122 52.3241 29.1778 51.9812C33.2962 51.5347 37.3849 48.9049 40.2286 45.9914C42.6888 43.4726 45.1836 40.014 45.9236 36.5035C46.0226 36.0298 46.0375 34.8481 45.5078 34.3671C44.7777 33.701 43.3867 34.1574 42.523 34.594C39.9366 35.8991 38.0952 37.5396 35.5261 38.741C34.603 39.1727 33.5288 39.4416 32.5289 39.0987C31.529 38.7558 30.7519 37.6827 30.7519 36.6342C30.7519 35.7585 31.2667 34.9542 31.8062 34.2955L31.8037 34.3005Z" fill="#192334"/>
<path d="M26.8662 62.6042C28.8189 62.6709 30.7098 62.7029 32.6106 62.6067L35.2218 62.476C39.5901 62.2564 45.2703 60.9711 49.1511 58.8594C52.6977 56.9302 55.5217 54.0612 57.1849 50.3731C58.6155 47.203 60.0856 44.1588 62.1621 41.3662C64.3995 38.359 67.8472 34.9003 71.9334 35.105L71.4186 38.2726L69.2901 50.193C69.1218 51.128 68.9139 51.9223 68.8545 52.9658C72.525 50.1979 75.198 44.3438 76.5072 40.1204L78.2323 34.55L80.4103 27.2256C81.3756 23.9791 82.5858 20.92 84.1723 17.9449C84.3332 17.6414 84.6945 17.486 84.9445 17.5304C85.1945 17.5748 85.5756 18.088 85.4073 18.4136C83.712 21.6823 82.4225 25.0226 81.378 28.5725L78.5714 38.095C78.064 39.8145 77.4923 41.3933 76.8661 43.0684C75.2277 47.4522 72.8467 51.6657 69.0971 54.5496C68.7555 54.8136 68.2011 54.8605 67.8744 54.6582C67.1072 54.182 67.4784 52.6797 67.622 51.8656L70.3544 36.5926C66.6567 37.4018 63.6521 41.3514 61.8255 44.2451C60.4197 46.4728 59.3852 48.7769 58.2764 51.1724C56.5167 54.9813 53.5689 57.9664 49.901 59.9769C44.3768 63.0064 38.0631 63.7292 31.8879 63.966C30.4896 64.0203 29.1506 64.0228 27.772 63.966L24.8144 63.8402C24.5372 63.8279 24.1981 63.443 24.1684 63.2037C24.1387 62.9792 24.4629 62.5253 24.7129 62.5327L26.8662 62.6067V62.6042Z" fill="#192334"/>
<path d="M25.1634 65.0142C28.762 65.8308 32.2691 66.3686 35.9098 66.5413C43.2309 66.8867 49.7401 66.2255 56.6825 63.8967C60.64 62.5695 64.2783 60.739 67.6641 58.3214C70.7925 56.0863 74.2377 52.7337 76.1484 49.391C77.5294 46.9783 78.6382 44.499 79.4574 41.8273L81.628 34.7594L84.1377 26.2558C85.2291 22.5578 86.5434 19.0449 88.1001 15.5295C88.2585 15.1742 88.5778 15.0114 88.902 15.0386C89.1446 15.0583 89.5851 15.4604 89.4465 15.7737C87.8576 19.3853 86.4889 22.9649 85.3727 26.7517L83.2912 33.8072L81.6255 39.4491L80.4375 43.0558C79.5243 45.8262 78.3635 48.4313 76.7795 50.9082C75.3316 53.1728 73.5595 55.097 71.5473 56.9004C63.5481 64.0644 52.7596 67.4022 42.1394 67.9203C36.2489 68.2065 30.45 67.5799 24.7104 66.2946C24.2229 66.186 23.9952 65.8333 24.1585 65.3571C24.2872 64.9846 24.6585 64.9057 25.1609 65.0192L25.1634 65.0142Z" fill="#192334"/>
<path d="M24.9505 61.3384C24.4233 61.3606 24.1288 61.1065 24.109 60.7586C24.0818 60.2529 24.3837 60.0753 24.8688 60.0383L26.584 59.9051C36.0731 59.1748 44.2877 56.286 51.0098 49.3613C53.5318 46.7636 55.6801 43.9562 57.6255 40.9193L60.3306 36.6984C62.3032 33.6221 64.1446 30.5655 66.3003 27.6051C71.5919 20.3301 77.7299 15.3542 86.4914 12.8429C86.922 12.7195 87.2908 12.9045 87.365 13.2622C87.4492 13.6619 87.2636 14.0097 86.8156 14.1331C84.3653 14.809 82.1205 15.7514 79.8534 16.9405C73.26 20.3992 68.4684 26.3322 64.5456 32.4971L62.9912 34.937C59.2639 40.7935 56.2147 46.1493 51.1088 51.0758C43.9238 58.0055 34.8926 60.9017 24.948 61.3384H24.9505Z" fill="#192334"/>
<path d="M24.9232 59.027C24.6138 59.0566 24.2945 58.8839 24.1856 58.7013C24.0371 58.4522 24.1287 57.8527 24.4232 57.8083L27.267 57.3741C37.3328 55.8397 46.082 48.8631 50.0222 39.5257C51.6854 35.581 50.9107 31.9052 55.9424 31.5574C56.8977 31.4908 59.3851 31.0837 59.15 32.2481C59.0732 32.628 58.7069 32.8279 58.2936 32.8229C56.222 32.7909 53.7545 32.6256 52.9006 34.757C52.2497 36.3828 52.1259 37.858 51.5789 39.2346C49.1039 45.4735 44.6984 50.8021 38.9787 54.3792C34.7044 57.0509 29.9153 58.5435 24.9257 59.0294L24.9232 59.027Z" fill="#192334"/>
<path d="M43.4436 87.4115C43.0501 90.024 40.6716 91.7262 38.115 91.6571C36.5161 91.6152 35.3281 90.9787 34.2144 89.6762L34.1129 91.44C33.7862 91.5412 33.259 91.5436 32.7937 91.482V76.7369C33.264 76.5618 33.7367 76.584 34.2639 76.7369L34.2539 82.7983C35.4048 81.4636 36.7389 80.8716 38.3625 80.8864C40.934 80.9086 43.0922 82.6823 43.4634 85.2381C43.5426 85.9535 43.5649 86.6048 43.4412 87.414L43.4436 87.4115ZM42.2284 86.2545C42.2284 84.0096 40.4018 82.1914 38.1521 82.1914C35.9023 82.1914 34.0757 84.012 34.0757 86.2545C34.0757 88.497 35.9023 90.3176 38.1521 90.3176C40.4018 90.3176 42.2284 88.497 42.2284 86.2545Z" fill="#192334"/>
<path d="M55.4968 91.5314L55.4201 89.6466C54.435 91.0232 52.9921 91.6671 51.366 91.6572C48.1362 91.6374 45.8493 89.0274 46.1339 85.8352C46.2329 84.7324 46.5398 83.6346 47.265 82.7465C49.188 80.3881 53.3485 80.1192 55.4127 82.8082L55.477 81.0147C55.8483 80.8815 56.3903 80.8963 56.9125 81.0246L56.9175 91.4648L55.4968 91.5314ZM54.9795 88.3218C55.7468 86.7233 55.6181 84.8903 54.5316 83.5409C53.1555 81.8313 50.5122 81.6487 48.8787 83.1338C47.2452 84.6189 47.1486 86.8392 48.2327 88.613C48.9801 89.8366 50.3414 90.4484 51.7571 90.367C53.0193 90.2954 54.3633 89.5973 54.9771 88.3218H54.9795Z" fill="#192334"/>
<path d="M78.4524 91.5387L78.3682 89.723C77.6084 90.4902 76.9748 91.1144 75.9848 91.408C73.9009 92.0222 71.5991 91.4943 70.2106 89.7354C68.54 87.6187 68.6687 84.4561 70.4656 82.4603C71.411 81.4094 72.7624 80.9653 74.1137 80.8938C75.7942 80.805 77.1481 81.4562 78.3039 82.702L78.4054 80.985C78.836 80.9086 79.2964 80.9135 79.826 80.99L79.831 91.4943L78.4524 91.5387ZM75.8809 90.1251C77.596 89.4936 78.3633 87.9197 78.388 86.2249C78.4202 83.8393 76.6704 82.0113 74.235 82.142C72.0471 82.258 70.5052 84.0342 70.5175 86.2224C70.525 87.5694 71.0398 88.8472 72.0793 89.5898C73.1782 90.3743 74.5394 90.6185 75.8833 90.1227L75.8809 90.1251Z" fill="#192334"/>
<path d="M14.6223 91.519L14.5233 89.6687C13.4219 90.9713 12.2438 91.6053 10.6277 91.6546C8.25414 91.7287 5.96476 90.2781 5.39304 87.8827C5.13564 86.8046 5.13069 85.5094 5.42521 84.4758C6.06871 82.2161 8.13534 80.9135 10.3826 80.8814C12.0285 80.8592 13.2957 81.4883 14.4317 82.7465L14.5208 80.9431H15.8474L15.8499 91.4499C15.4787 91.514 15.0208 91.5264 14.6174 91.5165L14.6223 91.519ZM9.64014 90.2731C10.9247 90.5741 12.2315 90.2189 13.1621 89.4344C14.0927 88.6499 14.4986 87.4954 14.5109 86.2224C14.5357 83.864 12.7586 82.0582 10.395 82.1371C8.03139 82.2161 6.63796 84.0046 6.64291 86.2224C6.64539 88.1195 7.62054 89.797 9.64014 90.2707V90.2731Z" fill="#192334"/>
<path d="M22.0374 76.6187H20.5475V91.529H22.0374V76.6187Z" fill="#192334"/>
<path d="M89.8325 82.2852C87.85 82.0928 86.068 83.3583 86.0458 85.3862L85.9765 91.4672C85.4666 91.5412 85.0657 91.5412 84.536 91.4672V80.9802C85.0236 80.9407 85.3924 80.9382 85.8428 80.9555L85.9319 82.8107C86.9071 81.4267 88.2213 80.8371 89.8449 80.9185L89.835 82.2877L89.8325 82.2852Z" fill="#192334"/>
<path d="M66.8645 82.2927C64.7236 82.0707 63.0778 83.499 63.053 85.5762L62.9837 91.5093L61.62 91.5043V81.0296C62.0358 80.9038 62.4788 80.9063 62.9367 80.9655L63.0233 82.7811C63.9663 81.3922 65.3152 80.8273 66.8967 80.9235C66.9437 81.4021 66.9412 81.782 66.8645 82.2902V82.2927Z" fill="#192334"/>
<path d="M55.0687 103.489C55.6825 105.268 54.8484 107.009 53.1852 107.377C52.1309 107.611 51.2696 107.411 50.5147 106.703L50.3266 107.352C50.2103 107.488 49.7277 107.431 49.3861 107.352V99.7121C49.693 99.5468 50.1781 99.5073 50.3786 99.6529L50.4281 102.527C51.3141 101.893 52.0616 101.597 53.0763 101.819C53.9104 102.001 54.7544 102.579 55.0687 103.489ZM54.0985 105.312C54.3312 104.562 54.2223 103.797 53.7347 103.274C53.3065 102.815 52.5937 102.497 51.8933 102.685C50.834 102.971 50.2449 104.037 50.485 105.065C50.688 105.931 51.3562 106.501 52.1779 106.575C52.9996 106.649 53.8287 106.185 54.0985 105.312Z" fill="#192334"/>
<path d="M36.0781 106.738C34.9668 107.7 33.1848 107.779 32.0958 106.644C31.0909 105.596 31.0315 103.879 31.9473 102.764C32.9818 101.505 34.7044 101.404 36.0929 102.468L36.1746 99.7045C36.3404 99.4899 36.9047 99.5022 37.1275 99.7144V107.189C37.1299 107.379 36.6127 107.485 36.4394 107.441C36.2662 107.397 36.1894 107.125 36.0756 106.738H36.0781ZM36.0335 105.297C36.2736 104.54 36.1226 103.827 35.6598 103.291C35.244 102.813 34.5287 102.497 33.8481 102.68C33.0338 102.897 32.4745 103.523 32.3903 104.333C32.2814 105.376 32.8111 106.267 33.7788 106.521C34.6797 106.758 35.7093 106.314 36.0335 105.297Z" fill="#192334"/>
<path d="M62.724 107.325L62.4592 106.718C61.932 107.199 61.3627 107.453 60.6425 107.473C59.1625 107.513 57.9967 106.555 57.7616 105.1C57.5661 103.906 58.1131 102.665 59.1031 102.127C60.2218 101.52 61.5335 101.631 62.4418 102.497C62.526 102.152 62.6299 101.856 62.8081 101.784C62.9863 101.713 63.5754 101.836 63.5779 102.036L63.5902 107.288C63.417 107.453 62.8081 107.52 62.724 107.327V107.325ZM62.5161 104.271C62.375 103.22 61.4172 102.534 60.4717 102.645C59.5263 102.756 58.7764 103.588 58.7689 104.592C58.7615 105.796 59.7045 106.681 60.8257 106.575C61.9468 106.469 62.6819 105.524 62.5161 104.271Z" fill="#192334"/>
<path d="M94.6736 80.9263H93.191V91.5317H94.6736V80.9263Z" fill="#192334"/>
<path d="M45.9335 101.873L45.9236 107.412L45.1242 107.421C44.9608 107.421 44.9237 107.039 44.8544 106.782C44.2579 107.256 43.6837 107.471 42.9313 107.478C41.7112 107.49 40.6741 106.659 40.6321 105.379C40.5949 104.259 40.5999 103.087 40.642 101.942C40.7434 101.676 41.632 101.713 41.6567 101.997C41.773 103.257 41.5924 104.466 41.7755 105.665C41.8894 106.405 42.8472 106.637 43.4437 106.538C45.5697 106.185 44.7257 103.524 44.9212 101.9C45.1415 101.745 45.5722 101.745 45.9286 101.873H45.9335Z" fill="#192334"/>
<path d="M19.7158 57.5888C20.7451 57.5888 21.5795 56.7571 21.5795 55.7312C21.5795 54.7052 20.7451 53.8735 19.7158 53.8735C18.6866 53.8735 17.8522 54.7052 17.8522 55.7312C17.8522 56.7571 18.6866 57.5888 19.7158 57.5888Z" fill="#192334"/>
<path d="M61.667 53.5901C62.7313 53.5013 63.5876 54.2611 63.6941 55.2454C63.8005 56.2297 63.0605 57.1622 62.063 57.2683C61.0656 57.3744 60.1276 56.6984 59.9791 55.6401C59.8454 54.6854 60.6003 53.6764 61.667 53.5876V53.5901Z" fill="#192334"/>
<path d="M14.2362 51.6261C15.2559 51.3992 16.2459 52.1343 16.4439 52.9904C16.6839 54.0388 16.033 55.0281 15.0381 55.2378C14.0431 55.4474 13.0754 54.9319 12.8427 53.8883C12.6373 52.9731 13.1001 51.8802 14.2386 51.6261H14.2362Z" fill="#192334"/>
<path d="M68.0625 107.278C67.8422 107.5 67.2829 107.5 67.07 107.271L67.0651 101.93C67.315 101.718 67.815 101.718 68.0551 101.917L68.065 107.276L68.0625 107.278Z" fill="#192334"/>
<path d="M93.6789 78.639C93.0774 78.5058 92.726 77.9507 92.8547 77.4277C92.9686 76.9664 93.4883 76.5544 94.013 76.6358C94.6862 76.7394 95.0426 77.1588 94.9956 77.7805C94.9535 78.3208 94.362 78.7895 93.6814 78.639H93.6789Z" fill="#192334"/>
<path d="M67.6046 100.761C67.9805 100.761 68.2852 100.457 68.2852 100.082C68.2852 99.7075 67.9805 99.4038 67.6046 99.4038C67.2287 99.4038 66.924 99.7075 66.924 100.082C66.924 100.457 67.2287 100.761 67.6046 100.761Z" fill="#192334"/>
</svg>
