<svg width="96" height="112" viewBox="0 0 96 112" fill="none" xmlns="http://www.w3.org/2000/svg">
<path fill-rule="evenodd" clip-rule="evenodd" d="M74.7817 107.131V111.99C74.5389 111.952 74.3152 111.933 74.1107 111.933C73.8679 111.933 73.6251 111.952 73.3823 111.99V107.438L69.4908 101.112C69.772 101.15 70.0755 101.169 70.4014 101.169C70.6442 101.169 70.9285 101.15 71.2544 101.112C71.4142 101.431 71.6378 101.834 71.9254 102.319C72.2065 102.85 72.5101 103.399 72.8359 103.968C73.1235 104.492 73.4078 104.977 73.689 105.425C73.9318 105.91 74.1331 106.255 74.2929 106.46C74.4207 106.255 74.6251 105.91 74.9063 105.425C75.1874 104.977 75.491 104.45 75.8169 103.843C76.1427 103.236 76.4463 102.69 76.7274 102.204L77.2834 101.112C77.5262 101.15 77.7466 101.169 77.9447 101.169C78.1108 101.169 78.3153 101.15 78.5582 101.112C78.1492 101.635 77.7626 102.163 77.3984 102.693L75.6923 105.482C75.4942 105.77 75.312 106.054 75.1459 106.335C75.0245 106.623 74.9031 106.888 74.7817 107.131ZM11.0131 101.112H11.3198C11.5626 103.092 11.7863 105.016 11.9908 106.882C12.1952 108.748 12.4189 110.45 12.6617 111.99C12.3742 111.952 12.109 111.933 11.8662 111.933C11.6233 111.933 11.3805 111.952 11.1377 111.99C11.0546 110.898 10.9524 109.824 10.831 108.77C10.7543 107.716 10.6744 106.763 10.5914 105.914C10.5083 105.019 10.4284 104.31 10.3517 103.786C9.4188 105.409 8.60727 106.888 7.91716 108.224C7.22704 109.521 6.63917 110.716 6.15353 111.808H5.97142L5.11836 109.987C4.06401 107.917 2.98731 105.85 1.88823 103.786L1.52401 106.824C1.4026 107.84 1.30036 108.792 1.21729 109.68C1.17895 110.575 1.14061 111.345 1.10227 111.99C0.897789 111.952 0.715675 111.933 0.555926 111.933C0.351448 111.933 0.166139 111.952 0 111.99C0.0830695 111.466 0.185309 110.818 0.306718 110.045C0.428127 109.278 0.549536 108.447 0.670946 107.553C0.792355 106.664 0.913764 105.792 1.03517 104.936C1.15658 104.086 1.25882 103.316 1.34189 102.626C1.42496 101.936 1.48567 101.431 1.52401 101.112H1.95533C2.56237 102.364 3.24929 103.722 4.01609 105.185C4.78927 106.604 5.6008 108.022 6.45066 109.441C7.18551 108.105 7.93633 106.725 8.70312 105.3C9.43158 103.926 10.2016 102.53 11.0131 101.112ZM36.5761 111.626L41.1961 105.118C41.9692 104.025 42.7201 102.933 43.4485 101.84L41.6274 101.773L39.3078 101.897L37.2375 102.08C37.2375 101.92 37.2598 101.757 37.3046 101.591C37.2598 101.431 37.2375 101.271 37.2375 101.112H45.5764V101.409C44.5604 102.751 43.4453 104.252 42.2312 105.914C41.0555 107.613 39.8574 109.396 38.6369 111.262H41.0715C41.8063 111.262 42.5795 111.243 43.391 111.204C44.1578 111.121 44.8671 111.061 45.5189 111.022C45.5189 111.182 45.4965 111.345 45.4518 111.511C45.4965 111.671 45.5189 111.831 45.5189 111.99H36.5761V111.626ZM90.846 101.112L95.5331 112C95.2519 111.955 94.9676 111.933 94.68 111.933C94.3989 111.933 94.1145 111.955 93.827 112C93.6225 111.31 93.3797 110.597 93.0985 109.863C92.8173 109.134 92.5138 108.406 92.1879 107.677H88.1718C87.8843 108.367 87.5999 109.077 87.3188 109.805C87.0376 110.495 86.7948 111.227 86.5903 112C86.3858 111.955 86.1814 111.933 85.9769 111.933C85.7788 111.933 85.5967 111.955 85.4305 112L90.2997 101.112H90.846ZM91.9387 107.006L90.1751 102.933L88.4115 107.006H91.9387ZM25.0071 101.112L29.6366 112C29.3491 111.955 29.0839 111.933 28.8411 111.933C28.5152 111.933 28.2308 111.955 27.988 112C27.7452 111.31 27.4832 110.597 27.2021 109.863L26.349 107.677H22.2754C21.9878 108.367 21.7227 109.077 21.4798 109.805C21.1987 110.495 20.9335 111.227 20.6843 112C20.4862 111.955 20.3041 111.933 20.138 111.933C19.9399 111.933 19.7386 111.955 19.5341 112L24.4033 101.112H25.0071ZM26.0998 107.006L24.3362 102.933L22.63 107.006H26.0998ZM57.9218 101.112L62.6088 112C62.3277 111.955 62.0433 111.933 61.7558 111.933C61.4746 111.933 61.1902 111.955 60.9027 112C60.7046 111.31 60.4618 110.597 60.1742 109.863C59.8931 109.134 59.5896 108.406 59.2637 107.677H55.2476C54.96 108.367 54.6757 109.077 54.3945 109.805C54.1134 110.495 53.8705 111.227 53.6661 112C53.4232 111.955 53.2188 111.933 53.0526 111.933C52.8545 111.933 52.6724 111.955 52.5063 112L57.3754 101.112H57.9218ZM59.0145 107.006L57.2508 102.933L55.4872 107.006H59.0145ZM40.8223 4.5816L43.6786 1.7828C46.0556 -0.594266 49.9471 -0.594266 52.3242 1.7828L91.9291 41.3782C94.3062 43.7457 94.3062 47.6467 91.9291 50.0142L52.3242 89.6096C50.3784 91.5553 47.5796 91.9196 45.2601 90.7694L82.7468 44.177C83.3506 43.2664 84.0216 42.5955 83.9641 40.6497C83.897 38.5794 82.2579 37.4867 82.2579 37.4867L40.8223 4.5816ZM30.6047 14.8567L35.7135 9.74788L72.8935 35.1096C73.4973 35.6656 74.2258 36.2119 74.4079 37.5442C74.59 38.9436 73.8615 40.1034 73.8615 40.1034L41.982 87.913L36.2598 82.1908L61.449 38.2727C61.9954 36.9979 62.4267 36.1448 62.3021 34.8125C62.12 32.7997 60.2893 31.9562 60.2893 31.9562L30.6047 14.8567ZM21.6045 23.8569L26.1094 19.352L47.9534 29.5695C48.4327 29.8763 49.535 30.4226 49.9567 31.822C50.388 33.2214 49.8321 34.6208 49.8321 34.6208L30.6047 76.5932L25.678 71.7241L39.1928 34.2566C39.4324 33.461 39.7392 32.3683 39.2503 31.151C38.6369 29.9338 37.18 29.512 37.18 29.512L21.6045 23.8569ZM4.01609 41.4357L18.566 26.9528L25.6205 29.3299C26.1094 29.512 27.0774 30.0009 27.5663 30.8539C28.2947 32.2533 27.8155 33.346 27.8155 33.346L18.9303 64.9763L4.01609 50.0717C1.64861 47.6946 1.64861 43.8032 4.01609 41.4357Z" fill="#192334"/>
</svg>
